<?xml version="1.0"?>
<svg xmlns="http://www.w3.org/2000/svg" id="Layer_1" enable-background="new 0 0 256 256" height="512px" viewBox="0 0 256 256" width="512px"><g><g><g fill="#5fcdff"><path d="m116.865 205.863.005 45.152h22.251l.005-45.123z" data-original="#5FCDFF"/><path d="m142.556 77.58c0-1.937-1.574-3.51-3.51-3.51l-22.117-.005c-1.941.005-3.51 1.574-3.515 3.515l.005 17.616 29.142.04z" data-original="#5FCDFF"/><path d="m150.514 103.576v102.326l-45.028-.05.05-73.979-.038-28.325c-.006-4.615 3.737-8.358 8.352-8.352l28.325.038c4.605.002 8.339 3.736 8.339 8.342z" data-original="#5FCDFF"/></g><path d="m131.87 251.016h-15l-.01-45.149 15 .02z" fill="#73d7f9" data-original="#73D7F9"/><path d="m142.56 95.216v.021l-29.14-.04-.01-17.62c.01-1.94 1.58-3.51 3.52-3.51h15c-1.94 0-3.51 1.57-3.52 3.51l.01 17.62z" fill="#73d7f9" data-original="#73D7F9"/><path d="m150.51 205.887v.02l-45.02-.05.05-73.98-.04-28.33c-.01-4.61 3.73-8.36 8.35-8.35l14.41.02c-4.34.29-7.77 3.92-7.76 8.33l.04 28.33-.05 73.98z" fill="#73d7f9" data-original="#73D7F9"/><path d="m150.51 103.576v102.33l-15-.02v-102.31c0-2.3-.93-4.39-2.44-5.9-1.08-1.08-2.45-2.02-3.99-2.46l13.09.021c2.31 0 4.39.93 5.9 2.44 1.51 1.509 2.44 3.599 2.44 5.899z" fill="#30b6ff" data-original="#30B6FF"/><g fill="#5f266d"><path d="m164.914 201.903-10.4-.007v-98.319c0-5.259-3.313-9.748-7.954-11.521l-.004-14.476c0-4.141-3.369-7.51-7.509-7.51l-6.98-.001-.042-65.159c-.004-5.347-8.004-5.294-8 .006l.042 65.15-7.148-.001c-4.128.011-7.495 3.377-7.505 7.516l.004 14.44c-4.69 1.798-7.928 6.297-7.921 11.534.049 35.675.048 14.618-.009 98.305l-10.397-.007c-.001 0-.002 0-.003 0-2.208 0-3.999 1.789-4 3.997-.001 2.209 1.788 4.001 3.997 4.003l21.779.015.004 37.169-5.492-.006c-.002 0-.003 0-.005 0-2.207 0-3.998 1.788-4 3.995-.002 2.209 1.786 4.002 3.995 4.005l41.255.049h.005c2.207 0 3.998-1.788 4-3.995.002-2.209-1.786-4.002-3.995-4.005l-5.511-.006.004-37.179c6.994.008 14.791.003 21.783.008h.003c2.208 0 3.999-1.789 4-3.997.003-2.209-1.787-4.001-3.996-4.003zm-26.358-123.833.004 13.161-21.142-.028-.004-13.138zm-3.435 168.945h-14.252l-.004-37.142c8.765.006 5.511.003 14.26.013zm11.393-131.465h-10.848c-2.209 0-4 1.791-4 4s1.791 4 4 4h10.848v12.666h-10.848c-2.209 0-4 1.791-4 4s1.791 4 4 4h10.848v12.667h-10.848c-2.209 0-4 1.791-4 4s1.791 4 4 4h10.848v12.667h-10.848c-2.209 0-4 1.791-4 4s1.791 4 4 4h10.848v16.34c-23.657-.016-13.221-.007-37.026-.033.056-83.006.057-62.636.009-98.314-.003-2.399 1.937-4.346 4.339-4.346h.007l28.331.038c2.393 0 4.34 1.947 4.34 4.341z" data-original="#5F266D" class="active-path" style="fill:#FFFFFF" data-old_color="#5F266D"/><path d="m119.667 130.163c-2.209 0-4 1.791-4 4v1.333c0 2.209 1.791 4 4 4s4-1.791 4-4v-1.333c0-2.209-1.792-4-4-4z" data-original="#5F266D" class="active-path" style="fill:#FFFFFF" data-old_color="#5F266D"/><path d="m119.667 105.163c-2.209 0-4 1.791-4 4v10c0 2.209 1.791 4 4 4s4-1.791 4-4v-10c0-2.209-1.792-4-4-4z" data-original="#5F266D" class="active-path" style="fill:#FFFFFF" data-old_color="#5F266D"/></g></g></g> </svg>
